<svg width="170" height="170" viewBox="0 0 170 170" fill="none" xmlns="http://www.w3.org/2000/svg">
<g clip-path="url(#clip0_359_87335)">
<rect x="-5" y="-4.60059" width="180" height="180" fill="#0C391C"/>
<path d="M92.149 64.8654L86.0799 70.7461L80.0107 64.8654C73.6467 58.6991 63.4378 59.0395 57.4988 65.6162C51.736 71.9978 50.9426 81.5563 56.161 88.3903C56.8022 89.2301 57.4328 90.0344 58.0328 90.7705C61.8311 95.4301 70.1184 103.567 74.2706 107.934C77.3383 111.161 80.0958 113.851 82.1733 115.811C84.3671 117.881 87.7535 117.836 89.9515 115.771C93.782 112.171 99.6561 106.565 103.794 102.213C107.946 97.8462 110.329 95.4301 114.127 90.7705C114.727 90.0344 115.358 89.2301 115.999 88.3903C121.217 81.5563 120.424 71.9978 114.661 65.6162C108.722 59.0395 98.513 58.6991 92.149 64.8654Z" stroke="#1ED760" stroke-width="8.5" stroke-linecap="round" stroke-linejoin="round"/>
</g>
<defs>
<clipPath id="clip0_359_87335">
<rect width="170" height="170" rx="7.24982" fill="white"/>
</clipPath>
</defs>
</svg>
