<svg width="30" height="30" viewBox="0 0 30 30" fill="none" xmlns="http://www.w3.org/2000/svg">
<path d="M22.0193 9.56422L22.0193 15.4356C22.0193 16.0786 21.498 16.5999 20.8551 16.5999L19.6551 16.5999C19.2403 16.5999 18.8568 16.8205 18.6484 17.1791L16.4494 20.9635C15.8518 21.9919 14.2785 21.5679 14.2785 20.3785L14.2785 17.7641C14.2785 17.1211 13.7573 16.5999 13.1143 16.5999L11.5543 16.5999C10.0579 16.5999 8.95002 15.2087 9.28486 13.7504L10.0983 10.2074C10.3411 9.14969 11.2825 8.39999 12.3677 8.39999L20.8551 8.39999C21.498 8.39999 22.0193 8.92123 22.0193 9.56422Z" stroke="#6D9ED7" stroke-width="1.47013"/>
</svg>
