<svg width="41" height="41" viewBox="0 0 41 41" fill="none" xmlns="http://www.w3.org/2000/svg">
<path d="M29.4002 14.3136C29.4002 16.1735 27.8925 17.6812 26.0326 17.6812C24.1728 17.6812 22.665 16.1735 22.665 14.3136C22.665 12.4538 24.1728 10.946 26.0326 10.946C27.8925 10.946 29.4002 12.4538 29.4002 14.3136Z" stroke="#898989" stroke-width="2.02054"/>
<path d="M19.1133 23.4167L19.8631 22.9168C21.6902 21.6988 23.8369 21.0488 26.0327 21.0488C28.2285 21.0488 30.3752 21.6988 32.2022 22.9168L32.952 23.4167C33.8889 24.0412 34.4516 25.0927 34.4516 26.2187V27.8962C34.4516 28.7641 33.748 29.4677 32.8801 29.4677H26.0327H19.1853C18.3174 29.4677 17.6138 28.7641 17.6138 27.8962V26.2187C17.6138 25.0927 18.1765 24.0412 19.1133 23.4167Z" stroke="#898989" stroke-width="2.02054" stroke-linecap="round" stroke-linejoin="round"/>
<path d="M17.9812 14.3136C17.9812 16.1735 16.4735 17.6812 14.6137 17.6812C12.7538 17.6812 11.2461 16.1735 11.2461 14.3136C11.2461 12.4538 12.7538 10.946 14.6137 10.946C16.4735 10.946 17.9812 12.4538 17.9812 14.3136Z" stroke="#898989" stroke-width="2.02054"/>
<path d="M14.6137 21.0488C12.4179 21.0488 10.2712 21.6988 8.44419 22.9168L7.6944 23.4167C6.75755 24.0412 6.19482 25.0927 6.19482 26.2187V27.8962C6.19482 28.7641 6.89842 29.4677 7.76636 29.4677H13.8273" stroke="#898989" stroke-width="2.02054" stroke-linecap="round" stroke-linejoin="round"/>
</svg>
