<svg width="35" height="26" viewBox="0 0 35 26" fill="none" xmlns="http://www.w3.org/2000/svg">
<path d="M26.573 6.73476C26.573 8.59461 25.0653 10.1023 23.2054 10.1023C21.3455 10.1023 19.8378 8.59461 19.8378 6.73476C19.8378 4.8749 21.3455 3.36719 23.2054 3.36719C25.0653 3.36719 26.573 4.8749 26.573 6.73476Z" fill="#898989" stroke="#898989" stroke-width="2.02054"/>
<path d="M16.286 15.8386L17.0358 15.3387C18.8629 14.1207 21.0096 13.4707 23.2054 13.4707C25.4012 13.4707 27.5479 14.1207 29.3749 15.3387L30.1247 15.8386C31.0616 16.4631 31.6243 17.5146 31.6243 18.6405V20.3181C31.6243 21.186 30.9207 21.8896 30.0528 21.8896H23.2054H16.358C15.4901 21.8896 14.7865 21.186 14.7865 20.3181V18.6405C14.7865 17.5146 15.3492 16.4631 16.286 15.8386Z" fill="#898989" stroke="#898989" stroke-width="2.02054" stroke-linecap="round" stroke-linejoin="round"/>
<path d="M15.1541 6.73476C15.1541 8.59461 13.6464 10.1023 11.7865 10.1023C9.92666 10.1023 8.41895 8.59461 8.41895 6.73476C8.41895 4.8749 9.92666 3.36719 11.7865 3.36719C13.6464 3.36719 15.1541 4.8749 15.1541 6.73476Z" fill="#898989" stroke="#898989" stroke-width="2.02054"/>
<path d="M5.08565 15.8728L5.48301 15.6495C7.40789 14.568 9.57863 14 11.7865 14C11.7865 14 11.1413 16.2102 11 18C10.9471 18.6708 10.941 19.5105 10.9507 20.2378C10.9627 21.1367 10.2464 21.8894 9.34743 21.8894H4.93912C4.07118 21.8894 3.36758 21.1858 3.36758 20.3178V18.8087C3.36758 17.5915 4.02445 16.469 5.08565 15.8728Z" fill="#898989" stroke="#898989" stroke-width="2.02054" stroke-linecap="round" stroke-linejoin="round"/>
</svg>
