<svg width="23" height="20" viewBox="0 0 23 20" fill="none" xmlns="http://www.w3.org/2000/svg">
<path d="M13.1336 2.36542L11.2698 4.17137L9.40593 2.36542C7.45157 0.471748 4.31642 0.576304 2.49256 2.59598C0.7228 4.55575 0.47915 7.49116 2.08172 9.58987C2.27865 9.84777 2.47228 10.0948 2.65656 10.3208C3.823 11.7518 6.36801 14.2507 7.64315 15.5918C8.58524 16.5826 9.43207 17.4089 10.07 18.0108C10.7438 18.6465 11.7837 18.6326 12.4587 17.9983C13.6351 16.893 15.439 15.1712 16.7097 13.8348C17.9848 12.4938 18.7165 11.7518 19.883 10.3208C20.0672 10.0948 20.2609 9.84777 20.4578 9.58987C22.0604 7.49116 21.8167 4.55575 20.047 2.59598C18.2231 0.576304 15.088 0.471746 13.1336 2.36542Z" stroke="currentColor" stroke-width="2.02054" stroke-linecap="round" stroke-linejoin="round"/>
</svg>
