<svg width="41" height="41" viewBox="0 0 41 41" fill="none" xmlns="http://www.w3.org/2000/svg">
<path d="M24.7337 12.4645C24.9424 12.908 25.4712 13.0984 25.9147 12.8896C26.3582 12.6809 26.5486 12.1521 26.3398 11.7086L24.7337 12.4645ZM13.8046 16.1871C14.6808 16.045 14.6808 16.0454 14.6809 16.0457C14.6809 16.0458 14.681 16.0462 14.681 16.0463C14.681 16.0467 14.6811 16.047 14.6811 16.0471C14.6812 16.0474 14.6811 16.0473 14.6811 16.0468C14.6809 16.0457 14.6805 16.0431 14.6799 16.0388C14.6786 16.0303 14.6765 16.0154 14.6739 15.9947C14.6686 15.9532 14.661 15.8883 14.6535 15.8035C14.6384 15.6334 14.6235 15.3852 14.6262 15.0857C14.6316 14.4804 14.7088 13.6973 14.9781 12.9313C15.2451 12.1721 15.6925 11.451 16.4325 10.9147C17.1703 10.3799 18.2741 9.97412 19.9513 9.97412V8.19897C17.979 8.19897 16.4897 8.68077 15.3907 9.47737C14.2939 10.2724 13.6608 11.3264 13.3035 12.3424C12.9486 13.3515 12.8577 14.3435 12.8511 15.0696C12.8478 15.4358 12.8659 15.7424 12.8853 15.9606C12.895 16.0699 12.9051 16.1576 12.9131 16.2201C12.9171 16.2514 12.9206 16.2764 12.9233 16.2947C12.9246 16.3039 12.9257 16.3114 12.9266 16.3172C12.9271 16.3201 12.9275 16.3225 12.9278 16.3246C12.9279 16.3256 12.9281 16.3265 12.9282 16.3273C12.9283 16.3277 12.9284 16.3282 12.9284 16.3284C12.9285 16.3289 12.9285 16.3293 13.8046 16.1871ZM19.9513 9.97412C21.4561 9.97412 22.498 10.3011 23.2261 10.7513C23.9522 11.2002 24.4244 11.8073 24.7337 12.4645L26.3398 11.7086C25.9084 10.7919 25.2233 9.89898 24.1596 9.24137C23.098 8.58504 21.7175 8.19897 19.9513 8.19897V9.97412Z" fill="#898989"/>
<path d="M26.1644 16.6309H13.7384C12.2678 16.6309 11.0757 17.823 11.0757 19.2936V28.6131C11.0757 30.0837 12.2678 31.2758 13.7384 31.2758H26.1644C27.635 31.2758 28.8271 30.0837 28.8271 28.6131V19.2936C28.8271 17.823 27.635 16.6309 26.1644 16.6309Z" stroke="#898989" stroke-width="1.77515"/>
<circle cx="19.9513" cy="24.1753" r="2.66272" stroke="#898989" stroke-width="1.77515"/>
</svg>
