<svg width="24" height="26" viewBox="0 0 24 26" fill="none" xmlns="http://www.w3.org/2000/svg">
<path d="M15.1541 6.73476C15.1541 8.59461 13.6464 10.1023 11.7865 10.1023C9.92666 10.1023 8.41895 8.59461 8.41895 6.73476C8.41895 4.8749 9.92666 3.36719 11.7865 3.36719C13.6464 3.36719 15.1541 4.8749 15.1541 6.73476Z" fill="#898989" stroke="#898989" stroke-width="2.02054"/>
<path d="M4.86716 15.8386L5.61695 15.3387C7.44399 14.1207 9.59068 13.4707 11.7865 13.4707C13.9823 13.4707 16.129 14.1207 17.9561 15.3387L18.7058 15.8386C19.6427 16.4631 20.2054 17.5146 20.2054 18.6405V20.3181C20.2054 21.186 19.5018 21.8896 18.6339 21.8896H11.7865H4.93912C4.07118 21.8896 3.36758 21.186 3.36758 20.3181V18.6405C3.36758 17.5146 3.93031 16.4631 4.86716 15.8386Z" fill="#898989" stroke="#898989" stroke-width="2.02054" stroke-linecap="round" stroke-linejoin="round"/>
</svg>
