<svg width="40" height="40" viewBox="0 0 40 40" fill="none" xmlns="http://www.w3.org/2000/svg">
<g clip-path="url(#clip0_217_23973)">
<path d="M12.9277 23.7812C9.97954 22.3072 9.97954 18.0991 12.9277 16.625L21.5713 12.3037C22.0144 12.0821 22.5358 12.4041 22.5361 12.8994L22.5361 27.5068C22.5358 28.0022 22.0144 28.3241 21.5713 28.1025L12.9277 23.7812Z" stroke="#898989" stroke-width="2"/>
<path d="M26.8691 25.2031C27.6499 24.9902 28.3719 24.5177 28.9472 23.8293C29.7509 22.8676 30.2025 21.5632 30.2025 20.2031C30.2025 18.843 29.7509 17.5387 28.9472 16.5769C28.3719 15.8886 27.6499 15.4161 26.8691 15.2031" stroke="#898989" stroke-width="1.66667" stroke-linecap="round"/>
<path d="M26.0365 19.6977C26.0365 19.517 26.1884 19.3647 26.3554 19.4339C26.4565 19.4758 26.5483 19.5371 26.6257 19.6145C26.7031 19.6919 26.7645 19.7838 26.8064 19.8849C26.8482 19.986 26.8698 20.0943 26.8698 20.2038C26.8698 20.3132 26.8482 20.4216 26.8064 20.5227C26.7645 20.6238 26.7031 20.7156 26.6257 20.793C26.5483 20.8704 26.4565 20.9318 26.3554 20.9737C26.1884 21.0428 26.0365 20.8906 26.0365 20.7099L26.0365 20.2038L26.0365 19.6977Z" fill="#898989" stroke="#898989" stroke-width="0.833333"/>
</g>
<defs>
<clipPath id="clip0_217_23973">
<rect width="23.3333" height="23.3333" fill="white" transform="translate(8.53613 8.53711)"/>
</clipPath>
</defs>
</svg>
